<svg width="50" height="42" viewBox="0 0 50 42" fill="none" xmlns="http://www.w3.org/2000/svg">
<path fill-rule="evenodd" clip-rule="evenodd" d="M3.82351 14.9256L11.1079 38.7164H40.0199L46.2637 14.9256H3.82351ZM0.0769162 13.8721C-0.262462 12.7637 0.563759 11.642 1.71954 11.642H48.2807C49.4075 11.642 50.2293 12.7116 49.9424 13.8048L42.88 40.715C42.6813 41.4723 41.9988 42 41.2183 42H9.95905C9.2044 42 8.53803 41.506 8.31643 40.7823L0.0769162 13.8721Z" fill="#EFEFEF"/>
<path fill-rule="evenodd" clip-rule="evenodd" d="M16.1041 14.9256L19.6613 38.7164H31.6856L35.2427 14.9256H16.1041ZM12.5994 13.6216C12.4436 12.5793 13.2482 11.642 14.2988 11.642H37.048C38.0986 11.642 38.9032 12.5793 38.7474 13.6216L34.7238 40.5318C34.5976 41.3757 33.875 42 33.0245 42H18.3224C17.4718 42 16.7492 41.3757 16.623 40.5318L12.5994 13.6216Z" fill="#EFEFEF"/>
<path fill-rule="evenodd" clip-rule="evenodd" d="M25.8973 18.8618C26.8011 18.8618 27.5338 19.5969 27.5338 20.5036V40.3582H24.2607V20.5036C24.2607 19.5969 24.9934 18.8618 25.8973 18.8618Z" fill="#EFEFEF"/>
<path fill-rule="evenodd" clip-rule="evenodd" d="M19.9308 3.28364C17.6712 3.28364 15.8395 5.1213 15.8395 7.38818V12.4716H12.5664V7.38818C12.5664 3.3078 15.8636 0 19.9308 0H31.8641C35.9313 0 39.2285 3.3078 39.2285 7.38818V13.374H35.9554V7.38818C35.9554 5.12131 34.1237 3.28364 31.8641 3.28364H19.9308Z" fill="#EFEFEF"/>
</svg>
