<svg width="36" height="36" viewBox="0 0 36 36" fill="none" xmlns="http://www.w3.org/2000/svg">
<path opacity="0.4" d="M18 3.375C26.1 3.375 32.625 9.9 32.625 18C32.625 26.1 26.1 32.625 18 32.625C9.9 32.625 3.375 26.1 3.375 18C3.375 9.9 9.9 3.375 18 3.375ZM18 0C8.1 0 0 8.1 0 18C0 27.9 8.1 36 18 36C27.9 36 36 27.9 36 18C36 8.1 27.9 0 18 0Z" fill="#EFEFEF"/>
<path opacity="0.4" d="M23.0135 22.0334C21.9251 22.9469 20.3717 23.6701 18.7843 23.7521C14.9291 23.9512 11.8333 21.325 11.6401 17.6914C11.4469 14.0579 14.2472 11.1271 18.1024 10.9279C19.9166 10.8342 21.7649 11.3817 22.967 12.6055L25.3365 10.1256C23.4314 8.50941 20.6533 7.5813 17.932 7.72187C12.2626 8.01473 7.95434 12.5238 8.23845 17.8672C8.52256 23.2106 13.2854 27.251 18.9548 26.9581C21.4493 26.8293 23.4448 25.8689 25.1909 24.4928L23.0135 22.0334Z" fill="#EFEFEF"/>
</svg>
