<svg width="32" height="60" viewBox="0 0 32 60" fill="none" xmlns="http://www.w3.org/2000/svg">
<path fill-rule="evenodd" clip-rule="evenodd" d="M5.14072 15.8362L15.9993 4.86759L26.8578 15.8362L15.9993 26.8047L5.14072 15.8362ZM15.2816 0.300292C15.678 -0.100097 16.3206 -0.100097 16.717 0.300291L31.3793 15.1112C31.7757 15.5116 31.7757 16.1607 31.3793 16.5611L18.3979 29.6741L31.7013 43.1122C32.0976 43.5126 32.0976 44.1617 31.7013 44.5621L16.717 59.6982C16.3206 60.0986 15.678 60.0986 15.2816 59.6982L0.29728 44.5621C-0.099093 44.1617 -0.0990932 43.5126 0.297279 43.1122L13.6006 29.6741L0.619235 16.5611C0.222862 16.1607 0.222861 15.5116 0.619234 15.1112L15.2816 0.300292ZM4.81877 43.8372L15.9993 32.5434L27.1798 43.8372L15.9993 55.1309L4.81877 43.8372Z" fill="#DC5C3C"/>
</svg>
