<svg width="30" height="31" viewBox="0 0 30 31" fill="none" xmlns="http://www.w3.org/2000/svg">
<mask id="path-2-inside-1_120_506" fill="white">
<path d="M25.5069 5.30017C31.3021 11.0954 31.2959 20.4974 25.4931 26.3002C19.6904 32.1029 10.2883 32.1091 4.49314 26.3139C-1.30206 20.5187 -1.29592 11.1167 4.50686 5.31388C10.3096 -0.488894 19.7117 -0.495035 25.5069 5.30017ZM6.42206 24.385C11.1533 29.1163 18.8293 29.1112 23.5667 24.3738C28.3042 19.6363 28.3092 11.9604 23.5779 7.22908C18.8467 2.4978 11.1707 2.50281 6.43325 7.24028C1.69579 11.9777 1.69077 19.6537 6.42206 24.385Z"/>
</mask>
<path d="M25.5069 5.30017C31.3021 11.0954 31.2959 20.4974 25.4931 26.3002C19.6904 32.1029 10.2883 32.1091 4.49314 26.3139C-1.30206 20.5187 -1.29592 11.1167 4.50686 5.31388C10.3096 -0.488894 19.7117 -0.495035 25.5069 5.30017ZM6.42206 24.385C11.1533 29.1163 18.8293 29.1112 23.5667 24.3738C28.3042 19.6363 28.3092 11.9604 23.5779 7.22908C18.8467 2.4978 11.1707 2.50281 6.43325 7.24028C1.69579 11.9777 1.69077 19.6537 6.42206 24.385Z" fill="#545454" stroke="#545454" stroke-width="6" mask="url(#path-2-inside-1_120_506)"/>
<path d="M3.80664 27.0279L26.2213 4.61326" stroke="#545454" stroke-width="3" stroke-linecap="square"/>
</svg>
