<svg width="42" height="42" viewBox="0 0 42 42" fill="none" xmlns="http://www.w3.org/2000/svg">
<mask id="path-1-inside-1_152_244" fill="white">
<path d="M31.5069 10.4932C37.3021 16.2884 37.2959 25.6904 31.4931 31.4932C25.6904 37.296 16.2883 37.3021 10.4931 31.5069C4.69794 25.7117 4.70408 16.3097 10.5069 10.5069C16.3096 4.70416 25.7117 4.69802 31.5069 10.4932ZM12.4221 29.578C17.1533 34.3093 24.8293 34.3043 29.5667 29.5668C34.3042 24.8294 34.3092 17.1534 29.5779 12.4221C24.8467 7.69085 17.1707 7.69587 12.4333 12.4333C7.69579 17.1708 7.69077 24.8467 12.4221 29.578Z"/>
</mask>
<path d="M31.5069 10.4932C37.3021 16.2884 37.2959 25.6904 31.4931 31.4932C25.6904 37.296 16.2883 37.3021 10.4931 31.5069C4.69794 25.7117 4.70408 16.3097 10.5069 10.5069C16.3096 4.70416 25.7117 4.69802 31.5069 10.4932ZM12.4221 29.578C17.1533 34.3093 24.8293 34.3043 29.5667 29.5668C34.3042 24.8294 34.3092 17.1534 29.5779 12.4221C24.8467 7.69085 17.1707 7.69587 12.4333 12.4333C7.69579 17.1708 7.69077 24.8467 12.4221 29.578Z" fill="#EFEFEF" stroke="#EFEFEF" stroke-width="6" mask="url(#path-1-inside-1_152_244)"/>
<path d="M9.80664 32.2209L32.2213 9.80632" stroke="#EFEFEF" stroke-width="3" stroke-linecap="square"/>
</svg>
