<svg width="21" height="35" viewBox="0 0 21 35" fill="none" xmlns="http://www.w3.org/2000/svg">
<path fill-rule="evenodd" clip-rule="evenodd" d="M20.9999 12.1579H20.9975C20.9983 12.3801 20.9843 12.6056 20.9545 12.8334C20.3321 17.5894 11.4491 32.8029 10.4423 34.5154C10.3254 34.8295 10.258 35 10.258 35C10.258 35 0.703308 18.618 0.0356558 12.3831C-0.0350007 11.7233 0.00123498 11.1063 0.127664 10.5392C0.810068 4.58984 5.20176 0 10.5177 0C16.3068 0 20.9999 5.44329 20.9999 12.1579ZM10.5398 18.4621C13.6126 18.4621 16.1035 15.942 16.1035 12.8334C16.1035 9.72475 13.6126 7.2047 10.5398 7.2047C7.46698 7.2047 4.976 9.72475 4.976 12.8334C4.976 15.942 7.46698 18.4621 10.5398 18.4621Z" fill="#DC5C3C"/>
</svg>
