<svg width="161" height="60" viewBox="0 0 161 60" fill="none" xmlns="http://www.w3.org/2000/svg">
<path d="M48.3033 46.7639H48.5533V46.5139V14.6319H52.6672H52.9172V14.3819V12.4861V12.2361H52.6672H42H41.75V12.4861V14.3819V14.6319H42H46.1138V46.5139V46.7639H46.3638H48.3033ZM72.8121 46.7639H73.0621V46.5139V17.3472C73.0621 15.5926 72.6933 14.1852 71.8491 13.2152C70.9989 12.2383 69.7067 11.75 67.9634 11.75C66.2201 11.75 64.9278 12.2383 64.0776 13.2152C63.2335 14.1852 62.8647 15.5926 62.8647 17.3472V46.5139V46.7639H63.1147H65.0541H65.3041V46.5139V30.6736H70.6226V46.5139V46.7639H70.8726H72.8121ZM95.2749 46.7639H95.5249V46.5139V16.8125C95.5249 15.2319 95.2183 13.9596 94.4918 13.0803C93.7573 12.1913 92.6326 11.75 91.105 11.75C89.5765 11.75 88.4754 12.1919 87.7532 13.0821C87.0413 13.9594 86.7344 15.2289 86.6853 16.804C86.6853 16.8042 86.6852 16.8045 86.6852 16.8047L85.8125 39.6988L85.8125 39.7005C85.7643 41.2458 85.5473 42.4372 85.1152 43.2351C84.9014 43.6299 84.6385 43.922 84.3222 44.1165C84.0066 44.3106 83.6231 44.4167 83.1531 44.4167H82.9031V44.6667V46.5139V46.7639H83.1531C84.9221 46.7639 86.1818 46.1114 87.0041 44.8717C87.8126 43.6526 88.1785 41.8945 88.2517 39.7167L89.1243 16.825C89.1243 16.8246 89.1243 16.8242 89.1244 16.8238C89.1724 15.8617 89.3281 15.1808 89.6316 14.7431C89.9193 14.3282 90.3654 14.0972 91.105 14.0972C91.8468 14.0972 92.3182 14.3299 92.6171 14.7465C92.9289 15.1808 93.0854 15.8579 93.0854 16.8125V46.5139V46.7639H93.3354H95.2749ZM117.093 46.7639H117.343V46.5139V12.4861V12.2361H117.093H115.299H115.072L115.05 12.4621L114.906 13.951L109.491 36.0181L109.585 31.9363L109.585 31.9363V31.9306V12.4861V12.2361H109.335H107.395H107.145V12.4861V46.5139V46.7639H107.395H109.189H109.416L109.438 46.5379L109.582 45.049L114.996 22.9819L114.903 27.0637L114.903 27.0637V27.0694V46.5139V46.7639H115.153H117.093ZM136.743 36.5417H136.493V36.7917V41.6528C136.493 42.7453 136.279 43.5539 135.856 44.0859C135.443 44.6066 134.797 44.9028 133.834 44.9028C132.87 44.9028 132.225 44.6066 131.811 44.0859C131.389 43.5539 131.175 42.7453 131.175 41.6528V17.2986C131.175 16.2059 131.389 15.4109 131.81 14.8918C132.222 14.3833 132.867 14.0972 133.834 14.0972C134.801 14.0972 135.446 14.3833 135.858 14.8918C136.279 15.4109 136.493 16.2059 136.493 17.2986V22.2083V22.4583H136.743H138.683H138.933V22.2083V17.2986C138.933 15.5441 138.564 14.1479 137.719 13.1897C136.868 12.225 135.575 11.75 133.834 11.75C132.093 11.75 130.8 12.225 129.949 13.1897C129.104 14.1479 128.735 15.5441 128.735 17.2986V41.6528C128.735 43.4074 129.104 44.8148 129.948 45.7848C130.798 46.7617 132.091 47.25 133.834 47.25C135.577 47.25 136.87 46.7617 137.72 45.7848C138.564 44.8148 138.933 43.4074 138.933 41.6528V36.7917V36.5417H138.683H136.743ZM160 46.7639H160.25V46.5139V17.3472C160.25 15.5926 159.881 14.1852 159.037 13.2152C158.187 12.2383 156.895 11.75 155.151 11.75C153.408 11.75 152.116 12.2383 151.266 13.2152C150.421 14.1852 150.053 15.5926 150.053 17.3472V46.5139V46.7639H150.303H152.242H152.492V46.5139V30.6736H157.811V46.5139V46.7639H158.061H160ZM70.6226 17.3472V28.3264H65.3041V17.3472C65.3041 16.2547 65.5186 15.4461 65.9409 14.9141C66.3543 14.3934 66.9999 14.0972 67.9634 14.0972C68.9269 14.0972 69.5725 14.3934 69.9859 14.9141C70.4082 15.4461 70.6226 16.2547 70.6226 17.3472ZM157.811 17.3472V28.3264H152.492V17.3472C152.492 16.2547 152.706 15.4461 153.129 14.9141C153.542 14.3934 154.188 14.0972 155.151 14.0972C156.115 14.0972 156.76 14.3934 157.174 14.9141C157.596 15.4461 157.811 16.2547 157.811 17.3472Z" fill="#EFEFEF" stroke="#EFEFEF" stroke-width="0.5"/>
<path fill-rule="evenodd" clip-rule="evenodd" d="M5.14072 15.8362L15.9993 4.86759L26.8578 15.8362L15.9993 26.8047L5.14072 15.8362ZM15.2816 0.300292C15.678 -0.100097 16.3206 -0.100097 16.717 0.300291L31.3793 15.1112C31.7757 15.5116 31.7757 16.1607 31.3793 16.5611L18.3979 29.6741L31.7013 43.1122C32.0976 43.5126 32.0976 44.1617 31.7013 44.5621L16.717 59.6982C16.3206 60.0986 15.678 60.0986 15.2816 59.6982L0.29728 44.5621C-0.0990931 44.1617 -0.0990933 43.5126 0.297279 43.1122L13.6006 29.6741L0.619235 16.5611C0.222862 16.1607 0.222861 15.5116 0.619234 15.1112L15.2816 0.300292ZM4.81877 43.8372L15.9993 32.5434L27.1798 43.8372L15.9993 55.1309L4.81877 43.8372Z" fill="#DC5C3C"/>
</svg>
