<svg width="35" height="28" viewBox="0 0 35 28" fill="none" xmlns="http://www.w3.org/2000/svg">
<path d="M10.547 5.89265C10.0223 4.11522 8.59817 4.31003 7.62446 5.13787C5.22586 7.35351 2.1027 12.004 4.10154 18.7004C5.77555 24.3734 12.7411 28.0013 12.7411 28.0013H4.62112C4.62112 28.0013 0.428419 23.3021 0.0536177 17.7752C-0.421087 10.7874 2.3775 6.38039 5.6256 3.50743C8.67379 0.804794 11.5721 0.00134277 11.5721 0.00134277L17.5008 19.4263L23.4295 0.00134277C23.4295 0.00134277 26.3278 0.804796 29.376 3.50743C32.6241 6.38038 35.4227 10.7874 34.948 17.7752C34.5732 23.3021 30.3805 28.0013 30.3805 28.0013H22.2605C22.2605 28.0013 29.2255 24.3734 30.9001 18.7004C32.8989 12.0048 29.7758 7.35427 27.3772 5.13787C26.4027 4.31003 24.9786 4.11522 24.4547 5.89265C22.6557 11.5657 17.5015 27.8202 17.5015 27.8202C17.5015 27.8202 12.3474 11.5603 10.5484 5.89265H10.547Z" fill="#DF0000"/>
</svg>
