<svg width="20" height="20" viewBox="0 0 20 20" fill="none" xmlns="http://www.w3.org/2000/svg">
<g clip-path="url(#clip0_26_35)">
<path d="M3.04539 16.6361C4.07129 16.9976 5.12914 16.9772 5.97889 16.5968C7.55678 15.9271 9.66012 13.9149 11.466 11.1809C13.5431 8.03712 14.5973 4.89149 14.245 3.27506C14.0424 2.2028 13.3488 1.13267 12.2612 0.397864C11.309 -0.245164 7.58953 5.3852 8.54138 6.02806C9.2721 6.52179 10.0724 6.7903 10.8395 6.84739C10.4073 7.76227 9.87137 8.71896 9.23958 9.67651C8.6039 10.6383 7.93176 11.5083 7.25878 12.2648C6.91231 11.5708 6.36089 10.9267 5.63103 10.4338C4.67868 9.79116 0.959569 15.4217 1.91142 16.0645C2.12166 16.2059 2.34218 16.3314 2.57112 16.44C2.10636 17.0776 2.35177 17.5437 2.49771 17.7314C2.98448 18.355 4.21914 18.4497 5.03832 17.9262C5.63118 17.5465 6.32653 17.3492 6.90271 17.3786C6.84853 17.7217 6.8686 18.03 6.92443 18.1884C7.08403 18.6391 7.38658 18.7577 7.55253 18.7878C7.64648 18.8055 7.74268 18.8039 7.8362 18.7852C8.02239 18.748 8.19017 18.648 8.3116 18.502C8.4717 18.3079 8.51708 18.059 8.434 17.8363C8.28438 17.437 7.97087 17.146 7.5267 16.9949C7.524 16.9945 7.52152 16.9931 7.51873 16.9924C7.59302 16.8195 7.69865 16.6577 7.84671 16.5373C8.00174 16.4091 8.19412 16.3344 8.3951 16.3245C8.34022 16.7934 8.42221 17.279 8.69331 17.598C8.93336 17.8804 9.32827 17.9403 9.65351 17.742C9.98035 17.5433 10.1124 17.1628 9.97384 16.8164C9.81282 16.412 9.44462 16.0784 8.99606 15.9221C9.06061 15.7561 9.14652 15.6137 9.24819 15.5205C9.45154 15.3342 9.67713 15.2563 9.93654 15.2819C10.0176 15.2902 10.0976 15.3077 10.1751 15.3323C10.1352 15.4288 10.1056 15.5292 10.0865 15.6319C10.0185 16.0005 10.1051 16.3594 10.3308 16.643C10.6381 17.0281 11.0415 16.9987 11.2853 16.8074C11.5947 16.566 11.7111 16.043 11.3707 15.5867C11.2734 15.4566 11.0974 15.2847 10.8728 15.1336L10.8282 15.1101C10.941 14.9477 11.1176 14.7643 11.3824 14.6669C11.4671 15.0035 11.6066 15.2792 11.7201 15.4031C12.0436 15.755 12.368 15.7453 12.5329 15.7084C12.626 15.6873 12.7143 15.6487 12.793 15.5945C12.9494 15.487 13.0644 15.3293 13.119 15.1476C13.1899 14.906 13.1346 14.6594 12.9703 14.4871C12.6764 14.1787 12.2735 14.0339 11.8056 14.0692L11.7973 14.0699C11.7978 13.8819 11.8315 13.6911 11.9201 13.5226C12.0126 13.3438 12.1602 13.1997 12.3412 13.1115C12.4744 13.5645 12.7405 13.9789 13.1148 14.1657C13.4468 14.3316 13.8335 14.2317 14.0547 13.9217C14.2776 13.6108 14.2496 13.2091 13.9863 12.9448C13.6791 12.6357 13.21 12.4734 12.736 12.5058C12.7301 12.3277 12.7535 12.1629 12.8103 12.0373C12.9248 11.7863 13.1011 11.626 13.3501 11.5477C13.4281 11.5235 13.5084 11.5083 13.589 11.5002C13.5903 11.6046 13.6024 11.7087 13.6251 11.8107C13.7071 12.1766 13.9277 12.4727 14.2465 12.6453C14.6802 12.8793 15.0397 12.6939 15.1889 12.4225C15.3789 12.0788 15.2807 11.5523 14.7883 11.2658C14.6479 11.184 14.4188 11.0954 14.153 11.0447C14.2327 10.7848 14.3796 10.5079 14.5862 10.2341C14.6253 10.1817 14.6421 10.1159 14.6328 10.0512C14.6236 9.98648 14.5891 9.92804 14.5369 9.88866C14.5113 9.86891 14.4821 9.85442 14.4509 9.84602C14.4197 9.83762 14.3871 9.83548 14.3551 9.83972C14.3231 9.84396 14.2922 9.8545 14.2643 9.87073C14.2363 9.88696 14.2119 9.90856 14.1923 9.93428C13.9221 10.2928 13.7393 10.656 13.6503 11.0038C13.4969 11.0078 13.3447 11.0327 13.198 11.0776C12.8201 11.1959 12.5309 11.4562 12.3619 11.8297C12.2633 12.0465 12.2281 12.3232 12.2498 12.6123C11.9175 12.7413 11.6476 12.9769 11.4838 13.2898C11.3396 13.5641 11.2946 13.8725 11.3082 14.1695C10.8411 14.3197 10.5381 14.6807 10.3949 14.8882C10.2618 14.8378 10.1228 14.8046 9.98136 14.7893C9.58717 14.7498 9.21909 14.8759 8.9169 15.153C8.74125 15.3136 8.60024 15.5545 8.50675 15.8289C8.15069 15.8172 7.80974 15.9281 7.5365 16.1518C7.29631 16.3475 7.13392 16.6135 7.02971 16.892C6.32838 16.8272 5.49278 17.0478 4.77355 17.5076C4.11658 17.9276 3.18512 17.8144 2.88238 17.4268C2.68272 17.1714 2.85491 16.8612 3.04539 16.6361ZM14.105 11.7087C14.0923 11.6521 14.0849 11.593 14.0824 11.5322C14.2872 11.5737 14.458 11.6414 14.5442 11.6917C14.8105 11.847 14.8164 12.0737 14.7578 12.1805C14.6926 12.2975 14.5689 12.2624 14.4762 12.2123C14.2836 12.1085 14.1557 11.9343 14.105 11.7087ZM13.6387 13.2911C13.7819 13.435 13.6757 13.6008 13.6532 13.6325C13.6311 13.6641 13.51 13.8159 13.3306 13.7263C13.0952 13.6088 12.917 13.3172 12.819 12.9958C13.1338 12.9861 13.445 13.0955 13.6387 13.2911ZM11.8627 14.5596C12.175 14.5395 12.4282 14.629 12.6152 14.8255C12.6681 14.8806 12.661 14.9525 12.6461 15.0033C12.6136 15.1127 12.5203 15.2048 12.4198 15.2277C12.2856 15.2577 12.1612 15.1597 12.0802 15.0716C12.0277 15.0143 11.9285 14.8149 11.8627 14.5596ZM10.568 15.7253C10.5786 15.6684 10.595 15.6114 10.6165 15.554C10.7886 15.6726 10.9193 15.802 10.9787 15.8817C11.1629 16.1288 11.079 16.3401 10.9832 16.4154C10.8775 16.4972 10.7776 16.4163 10.712 16.334C10.5758 16.1636 10.5261 15.9529 10.568 15.7253ZM8.88062 16.4046C9.1739 16.5194 9.41707 16.7419 9.51873 16.9979C9.5941 17.1868 9.43118 17.2971 9.39825 17.3175C9.36531 17.3379 9.19455 17.4301 9.06476 17.2769C8.89439 17.077 8.84459 16.739 8.88062 16.4046ZM7.38715 17.4684C7.68225 17.5724 7.88012 17.7541 7.97501 18.0085C8.00214 18.0795 7.96748 18.143 7.93357 18.1838C7.86115 18.2717 7.73916 18.3194 7.63769 18.3013C7.50245 18.2765 7.42632 18.1374 7.3867 18.0247C7.36045 17.9514 7.34754 17.7288 7.38715 17.4684Z" fill="#DF0000"/>
</g>
<defs>
<clipPath id="clip0_26_35">
<rect width="20" height="20" fill="white"/>
</clipPath>
</defs>
</svg>
