<svg width="76" height="66" viewBox="0 0 76 66" fill="none" xmlns="http://www.w3.org/2000/svg">
<path d="M34.4998 1.99396C36.0554 -0.66465 39.9446 -0.664655 41.5002 1.99396L75.4525 60.0181C77.0081 62.6767 75.0636 66 71.9522 66H4.04775C0.936436 66 -1.00814 62.6767 0.547517 60.0181L34.4998 1.99396Z" fill="#EFEFEF"/>
<mask id="mask0_95_829" style="mask-type:alpha" maskUnits="userSpaceOnUse" x="0" y="0" width="76" height="66">
<path d="M34.4998 1.99396C36.0554 -0.66465 39.9446 -0.664655 41.5002 1.99396L75.4525 60.0181C77.0081 62.6767 75.0636 66 71.9522 66H4.04775C0.936436 66 -1.00814 62.6767 0.547517 60.0181L34.4998 1.99396Z" fill="#EFEFEF"/>
</mask>
<g mask="url(#mask0_95_829)">
<path d="M-1.12305 52.4053H77.1235V69.8603H-1.12305V52.4053Z" fill="#FFA791"/>
</g>
<path d="M40.0207 23.5287C40.0207 26.8324 37.3064 29.5106 33.9581 29.5106C30.6098 29.5106 27.8955 26.8324 27.8955 23.5287C27.8955 20.2251 30.6098 17.5469 33.9581 17.5469C37.3064 17.5469 40.0207 20.2251 40.0207 23.5287Z" fill="#FFA791"/>
<path d="M26.2788 45.4625C26.2788 47.665 24.4692 49.4504 22.237 49.4504C20.0049 49.4504 18.1953 47.665 18.1953 45.4625C18.1953 43.2601 20.0049 41.4746 22.237 41.4746C24.4692 41.4746 26.2788 43.2601 26.2788 45.4625Z" fill="#FFA791"/>
<path d="M57.8046 40.2779C57.8046 44.9031 54.1855 48.6526 49.7211 48.6526C45.2568 48.6526 41.6377 44.9031 41.6377 40.2779C41.6377 35.6528 45.2568 31.9033 49.7211 31.9033C54.1855 31.9033 57.8046 35.6528 57.8046 40.2779Z" fill="#FFA791"/>
</svg>
